<?xml version="1.0" standalone="no"?>
<!DOCTYPE svg PUBLIC "-//W3C//DTD SVG 20010904//EN"
 "http://www.w3.org/TR/2001/REC-SVG-20010904/DTD/svg10.dtd">
<svg version="1.0" xmlns="http://www.w3.org/2000/svg"
 width="1024.000000pt" height="1024.000000pt" viewBox="0 0 1024.000000 1024.000000"
 preserveAspectRatio="xMidYMid meet">
<metadata>
Created by potrace 1.14, written by Peter Selinger 2001-2017
</metadata>
<g transform="translate(0.000000,1024.000000) scale(0.100000,-0.100000)"
fill="#000000" stroke="none">
<path d="M2953 8971 c-102 -35 -179 -106 -224 -206 -22 -48 -23 -63 -25 -375
-2 -179 -3 -334 -4 -345 0 -20 -4 -20 -787 -20 -434 0 -812 -3 -841 -8 -111
-16 -221 -100 -270 -205 l-27 -57 0 -545 c0 -497 3 -582 20 -675 25 -129 88
-304 153 -425 40 -75 136 -227 151 -240 3 -3 28 -34 55 -70 73 -96 296 -313
421 -410 61 -47 119 -93 129 -102 11 -10 25 -18 32 -18 7 0 14 -4 16 -9 7 -18
260 -168 408 -242 133 -66 323 -148 355 -153 6 -1 15 -4 20 -8 29 -17 363
-110 475 -132 122 -24 171 -32 246 -42 33 -4 62 -9 67 -10 4 -1 15 -2 26 -3
12 -1 41 -38 86 -108 64 -104 142 -216 195 -283 72 -92 97 -121 158 -190 71
-81 334 -346 392 -396 35 -30 184 -130 204 -137 10 -3 17 -1086 6 -1088 -3 -1
-183 -2 -400 -4 -217 -1 -426 -5 -464 -9 -224 -24 -452 -127 -598 -270 -70
-69 -111 -127 -153 -219 -58 -129 -70 -203 -70 -438 0 -160 1 -167 25 -202 14
-20 43 -44 65 -54 37 -17 148 -18 2325 -18 2177 0 2288 1 2325 18 22 10 51 34
65 54 23 34 25 44 26 192 2 194 -7 270 -47 390 -80 241 -321 443 -615 516
-139 35 -199 38 -636 39 -214 0 -388 3 -389 6 -3 15 -4 1057 -1 1070 2 8 42
40 90 72 100 65 258 195 351 289 77 78 190 203 210 233 8 11 18 23 21 26 4 3
32 39 63 80 31 41 60 80 65 85 16 20 150 222 187 283 28 46 44 62 61 63 13 1
27 2 32 3 4 1 45 8 92 15 47 7 128 22 180 33 52 11 104 21 115 24 37 7 150 35
180 45 84 25 222 70 235 76 8 3 17 7 20 8 90 22 455 199 580 281 25 16 50 31
55 34 35 17 196 132 290 207 102 82 302 272 370 353 216 255 362 545 401 795
3 22 10 60 14 85 5 25 8 288 7 585 l-2 540 -26 55 c-47 101 -153 187 -254 206
-21 4 -400 7 -841 7 -553 1 -804 4 -804 12 -1 5 -2 161 -3 345 l-2 335 -33 66
c-38 78 -100 140 -180 177 l-57 27 -2130 2 c-2026 2 -2133 2 -2182 -16z m-257
-1920 c6 0 10 -16 10 -33 0 -41 13 -233 18 -273 2 -16 7 -60 10 -96 4 -36 8
-76 10 -90 3 -13 7 -51 11 -84 4 -32 9 -68 11 -78 2 -10 13 -73 24 -140 12
-67 30 -160 40 -207 10 -47 21 -98 24 -115 4 -16 15 -63 25 -102 10 -40 18
-73 16 -73 -7 0 -163 62 -220 88 -97 43 -245 122 -318 168 -37 24 -70 44 -72
44 -3 0 -13 6 -22 14 -10 8 -54 44 -98 79 -82 66 -195 174 -230 219 -86 110
-112 150 -143 216 -51 112 -62 203 -53 437 l1 30 473 -1 c259 -1 477 -2 483
-3z m5805 -11 c4 -63 1 -273 -5 -305 -30 -182 -204 -419 -431 -590 -22 -16
-44 -35 -50 -41 -9 -10 -41 -32 -116 -79 -78 -48 -229 -130 -294 -160 -67 -31
-250 -105 -259 -105 -2 0 12 62 30 138 18 75 36 157 40 182 3 25 8 48 10 51 2
3 6 21 9 40 3 19 12 70 20 114 17 95 24 145 31 205 3 25 7 56 9 70 2 14 7 52
10 85 4 33 8 76 10 95 3 19 8 80 11 135 7 102 11 152 13 170 1 7 169 10 481
10 421 0 480 -2 481 -15z"/>
</g>
</svg>
